<svg width="428" height="73" viewBox="0 0 428 73" fill="none" xmlns="http://www.w3.org/2000/svg">
<path d="M53.6 71L47.9 55.3H16.4L10.7 71H0.8L26.9 0.999995H37.4L63.5 71H53.6ZM19.6 46.6H44.7L32.1 12.1L19.6 46.6ZM110.086 0.999995H118.786V71H110.086V62.4C105.753 69 99.4526 72.3 91.1859 72.3C84.1859 72.3 78.2193 69.7667 73.2859 64.7C68.3526 59.5667 65.8859 53.3333 65.8859 46C65.8859 38.6667 68.3526 32.4667 73.2859 27.4C78.2193 22.2667 84.1859 19.7 91.1859 19.7C99.4526 19.7 105.753 23 110.086 29.6V0.999995ZM92.2859 63.9C97.3526 63.9 101.586 62.2 104.986 58.8C108.386 55.3333 110.086 51.0667 110.086 46C110.086 40.9333 108.386 36.7 104.986 33.3C101.586 29.8333 97.3526 28.1 92.2859 28.1C87.2859 28.1 83.0859 29.8333 79.6859 33.3C76.2859 36.7 74.5859 40.9333 74.5859 46C74.5859 51.0667 76.2859 55.3333 79.6859 58.8C83.0859 62.2 87.2859 63.9 92.2859 63.9ZM139.667 29.4C142.534 23.2 147.734 20.1 155.267 20.1V29.2C151.001 29 147.334 30.1333 144.267 32.6C141.201 35.0667 139.667 39.0333 139.667 44.5V71H130.967V21H139.667V29.4ZM201.445 21H210.145V71H201.445V62.4C197.112 69 190.812 72.3 182.545 72.3C175.545 72.3 169.579 69.7667 164.645 64.7C159.712 59.5667 157.245 53.3333 157.245 46C157.245 38.6667 159.712 32.4667 164.645 27.4C169.579 22.2667 175.545 19.7 182.545 19.7C190.812 19.7 197.112 23 201.445 29.6V21ZM183.645 63.9C188.712 63.9 192.945 62.2 196.345 58.8C199.745 55.3333 201.445 51.0667 201.445 46C201.445 40.9333 199.745 36.7 196.345 33.3C192.945 29.8333 188.712 28.1 183.645 28.1C178.645 28.1 174.445 29.8333 171.045 33.3C167.645 36.7 165.945 40.9333 165.945 46C165.945 51.0667 167.645 55.3333 171.045 58.8C174.445 62.2 178.645 63.9 183.645 63.9ZM229.729 34.5C229.729 36.4333 230.696 38 232.629 39.2C234.562 40.3333 236.896 41.2667 239.629 42C242.362 42.6667 245.096 43.4667 247.829 44.4C250.562 45.2667 252.896 46.8 254.829 49C256.762 51.1333 257.729 53.9 257.729 57.3C257.729 61.8333 255.962 65.4667 252.429 68.2C248.962 70.9333 244.496 72.3 239.029 72.3C234.162 72.3 229.996 71.2333 226.529 69.1C223.062 66.9667 220.596 64.1333 219.129 60.6L226.629 56.3C227.429 58.7 228.929 60.6 231.129 62C233.329 63.4 235.962 64.1 239.029 64.1C241.896 64.1 244.262 63.5667 246.129 62.5C247.996 61.3667 248.929 59.6333 248.929 57.3C248.929 55.3667 247.962 53.8333 246.029 52.7C244.096 51.5 241.762 50.5667 239.029 49.9C236.296 49.1667 233.562 48.3333 230.829 47.4C228.096 46.4667 225.762 44.9333 223.829 42.8C221.896 40.6667 220.929 37.9333 220.929 34.6C220.929 30.2667 222.596 26.7 225.929 23.9C229.329 21.1 233.562 19.7 238.629 19.7C242.696 19.7 246.296 20.6333 249.429 22.5C252.629 24.3 255.029 26.8333 256.629 30.1L249.329 34.2C247.529 29.9333 243.962 27.8 238.629 27.8C236.162 27.8 234.062 28.4 232.329 29.6C230.596 30.7333 229.729 32.3667 229.729 34.5ZM292.277 29.4H278.977V56.5C278.977 58.9667 279.443 60.7333 280.377 61.8C281.377 62.8 282.877 63.3333 284.877 63.4C286.877 63.4 289.343 63.3333 292.277 63.2V71C284.677 72 279.11 71.4 275.577 69.2C272.043 66.9333 270.277 62.7 270.277 56.5V29.4H260.377V21H270.277V9.6L278.977 7V21H292.277V29.4ZM305.138 50C306.004 54.4667 308.038 57.9333 311.238 60.4C314.504 62.8667 318.504 64.1 323.238 64.1C329.838 64.1 334.638 61.6667 337.638 56.8L345.038 61C340.171 68.5333 332.838 72.3 323.038 72.3C315.104 72.3 308.638 69.8333 303.638 64.9C298.704 59.9 296.238 53.6 296.238 46C296.238 38.4667 298.671 32.2 303.538 27.2C308.404 22.2 314.704 19.7 322.438 19.7C329.771 19.7 335.738 22.3 340.338 27.5C345.004 32.6333 347.338 38.8333 347.338 46.1C347.338 47.3667 347.238 48.6667 347.038 50H305.138ZM322.438 27.9C317.771 27.9 313.904 29.2333 310.838 31.9C307.771 34.5 305.871 38 305.138 42.4H338.538C337.804 37.6667 335.938 34.0667 332.938 31.6C329.938 29.1333 326.438 27.9 322.438 27.9ZM360.738 11.9C359.072 11.9 357.672 11.3333 356.538 10.2C355.405 9.06667 354.838 7.7 354.838 6.1C354.838 4.5 355.405 3.13333 356.538 1.99999C357.672 0.799998 359.072 0.2 360.738 0.2C362.338 0.2 363.705 0.799998 364.838 1.99999C365.972 3.13333 366.538 4.5 366.538 6.1C366.538 7.7 365.972 9.06667 364.838 10.2C363.705 11.3333 362.338 11.9 360.738 11.9ZM356.338 71V21H365.038V71H356.338ZM418.711 21H427.411V71H418.711V62.4C414.378 69 408.078 72.3 399.811 72.3C392.811 72.3 386.844 69.7667 381.911 64.7C376.978 59.5667 374.511 53.3333 374.511 46C374.511 38.6667 376.978 32.4667 381.911 27.4C386.844 22.2667 392.811 19.7 399.811 19.7C408.078 19.7 414.378 23 418.711 29.6V21ZM400.911 63.9C405.978 63.9 410.211 62.2 413.611 58.8C417.011 55.3333 418.711 51.0667 418.711 46C418.711 40.9333 417.011 36.7 413.611 33.3C410.211 29.8333 405.978 28.1 400.911 28.1C395.911 28.1 391.711 29.8333 388.311 33.3C384.911 36.7 383.211 40.9333 383.211 46C383.211 51.0667 384.911 55.3333 388.311 58.8C391.711 62.2 395.911 63.9 400.911 63.9Z" fill="#142251"/>
</svg>
